<svg width="24.000000" height="24.000000" viewBox="0 0 24 24" fill="none" xmlns="http://www.w3.org/2000/svg"
    xmlns:xlink="http://www.w3.org/1999/xlink">
    <desc>
        Created with Pixso.
    </desc>
    <g clip-path="url(#clip11_117)">
        <path
            d="M19.5 4C19.5 3.16016 20.1602 2.5 21 2.5C21.8398 2.5 22.5 3.16016 22.5 4L22.5 12C22.5 12.8398 21.8398 13.5 21 13.5C20.1602 13.5 19.5 12.8398 19.5 12L19.5 4Z"
            fill-rule="evenodd" fill="#808080" />
        <path
            d="M1.5 12C1.5 11.1602 2.16016 10.5 3 10.5C3.83984 10.5 4.5 11.1602 4.5 12L4.5 20C4.5 20.8398 3.83984 21.5 3 21.5C2.16016 21.5 1.5 20.8398 1.5 20L1.5 12Z"
            fill-rule="evenodd" fill="#808080" />
        <path
            d="M1.5 12C1.5 11.1602 2.16016 10.5 3 10.5C3.83984 10.5 4.5 11.1602 4.5 12C4.5 13.0176 4.69629 13.9912 5.08887 14.9189C5.46777 15.8164 6.00391 16.6104 6.69629 17.3037C7.38965 17.9961 8.18359 18.5322 9.08105 18.9111C10.0088 19.3037 10.9824 19.5 12 19.5C12.9941 19.5 13.9463 19.3125 14.8564 18.9375C15.7363 18.5742 16.5195 18.0615 17.208 17.3965C17.8125 16.8135 18.7461 16.8301 19.3291 17.4346C19.9131 18.0381 19.8965 18.9717 19.292 19.5547C18.3291 20.4844 17.2324 21.2031 16 21.7109C14.7236 22.2373 13.3906 22.5 12 22.5C10.5762 22.5 9.21387 22.2246 7.91211 21.6738C6.65625 21.1426 5.54395 20.3926 4.5752 19.4248C3.60742 18.4561 2.85742 17.3438 2.32617 16.0879C1.77539 14.7861 1.5 13.4238 1.5 12Z"
            fill-rule="evenodd" fill="#808080" />
        <path
            d="M19.5 12C19.5 10.9824 19.3037 10.0088 18.9111 9.08105C18.5322 8.18359 17.9961 7.38965 17.3037 6.69629C16.6113 6.00391 15.8164 5.46777 14.9189 5.08887C13.9912 4.69629 13.0186 4.5 12 4.5C10.959 4.5 9.96582 4.70508 9.01953 5.11523C8.10449 5.51172 7.2998 6.07031 6.60352 6.79199C6.02051 7.39648 5.08691 7.41309 4.48242 6.8291C3.87793 6.24609 3.86133 5.3125 4.44531 4.70801C5.41797 3.7002 6.54492 2.91797 7.82617 2.36328C9.15234 1.78809 10.5439 1.5 12 1.5C13.4238 1.5 14.7861 1.77539 16.0879 2.32617C17.3447 2.85742 18.457 3.60742 19.4248 4.5752C20.3936 5.54395 21.1436 6.65625 21.6748 7.91211C22.2256 9.21387 22.5 10.5762 22.5 12C22.5 12.8398 21.8408 13.5 21 13.5C20.1602 13.5 19.5 12.8398 19.5 12Z"
            fill-rule="evenodd" fill="#808080" />
    </g>
    <defs>
        <clipPath id="clip11_117">
            <rect width="24.000000" height="24.000000" fill="white" />
        </clipPath>
    </defs>
</svg>