<svg width="72.000000" height="72.000000" viewBox="0 0 72 72" fill="none" xmlns="http://www.w3.org/2000/svg"
    xmlns:xlink="http://www.w3.org/1999/xlink">
    <desc>
        Created with Pixso.
    </desc>
    <g clip-path="url(#clip15_172)">
        <path
            d="M8.69287 64.5L63.3032 64.5C63.959 64.5 64.4907 63.9834 64.4907 63.3467L64.4907 61.9697C64.5181 61.5547 64.5737 59.4834 63.208 57.1934C62.3472 55.749 61.0977 54.502 59.4941 53.4863C57.5542 52.2568 55.0869 51.3662 52.1021 50.8301C52.0801 50.8271 49.8667 50.5332 47.5996 49.9541C43.6514 48.9463 43.3062 48.0537 43.3042 48.0449C43.2808 47.957 43.2471 47.8721 43.2041 47.792C43.1719 47.626 43.0923 46.999 43.2446 45.3203C43.6318 41.0566 45.9194 38.5361 47.7568 36.5117C48.3364 35.873 48.8838 35.2705 49.3057 34.6787C51.124 32.127 51.293 29.2256 51.3003 29.0459C51.3003 28.6816 51.2588 28.3818 51.1689 28.1045C50.9907 27.5488 50.6548 27.2031 50.4097 26.9502C50.3477 26.8867 50.2876 26.8242 50.2397 26.7686C50.2217 26.748 50.1733 26.6914 50.2173 26.4043C50.3789 25.3467 50.4756 24.4619 50.5225 23.6182C50.605 22.1152 50.6699 19.8682 50.2822 17.6816C50.2344 17.3076 50.1519 16.9131 50.0239 16.4434C49.6147 14.9375 48.9565 13.6494 48.0425 12.5869C47.8853 12.416 44.0635 8.38965 32.9683 7.56348C31.4341 7.44922 29.9175 7.51074 28.4243 7.58691C28.0645 7.60449 27.5718 7.62891 27.1108 7.74805C25.9653 8.04492 25.6597 8.77148 25.5791 9.17773C25.4463 9.85059 25.6802 10.374 25.8345 10.7207C25.8569 10.7715 25.8848 10.833 25.8364 10.9951C25.5791 11.3936 25.1738 11.7529 24.7607 12.0938C24.6411 12.1953 21.8589 14.5947 21.7061 17.7285C21.2935 20.1113 21.3247 23.8252 21.8125 26.3916C21.8408 26.5332 21.8828 26.7432 21.8149 26.8848C21.29 27.3555 20.6958 27.8877 20.6973 29.1035C20.7036 29.2256 20.8721 32.127 22.6909 34.6787C23.1118 35.2695 23.6587 35.8721 24.2383 36.5107C26.0757 38.5352 28.3643 41.0566 28.7515 45.3203C28.9043 46.999 28.8242 47.626 28.792 47.792C28.749 47.8721 28.7153 47.9561 28.6924 48.0449C28.6899 48.0537 28.3462 48.9434 24.416 49.9492C22.1484 50.5303 19.916 50.8271 19.8496 50.8359C16.9492 51.3262 14.4966 52.1943 12.5601 53.417C10.9624 54.4268 9.71045 55.6758 8.83936 57.1318C7.44775 59.457 7.48535 61.5742 7.50537 61.9609L7.50537 63.3467C7.50537 63.9834 8.03711 64.5 8.69287 64.5Z"
            stroke="#808080" stroke-width="3.000000" stroke-linejoin="round" />
    </g>
    <defs>
        <clipPath id="clip15_172">
            <rect width="72.000000" height="72.000000" fill="white" />
        </clipPath>
    </defs>
</svg>